<?xml version="1.0" encoding="UTF-8"?>
<svg id="Layer_1" xmlns="http://www.w3.org/2000/svg" version="1.1" viewBox="0 0 227.3 48">
  <!-- Generator: Adobe Illustrator 30.6.0, SVG Export Plug-In . SVG Version: 2.1.4 Build 109)  -->
  <defs>
    <style>
      .st0 {
        fill: #1c1f26;
      }

      .st1 {
        fill: #6b7280;
      }
    </style>
  </defs>
  <g id="logo">
    <path class="st0" d="M39,0H9C4,0,0,4,0,9v30c0,5,4,9,9,9h30c5,0,9-4,9-9V9c0-5-4-9-9-9ZM27.4,37h-6.8L10.9,11h6.5l4.7,13.7c.5,1.5,1,3,1.4,4.5.2.6.4,1.3.5,1.9.2-.6.4-1.3.5-1.9.4-1.5.9-3,1.4-4.5l4.7-13.7h6.5l-9.7,26Z"/>
    <g id="wordmark">
      <path class="st0" d="M69.2,34.6l-8.8-24.7h4.8l4.4,13c.4,1.3.9,2.7,1.3,4.4.5,1.6,1,3.5,1.7,5.6h-1.2c.6-2.1,1.1-3.9,1.6-5.6.5-1.6.9-3.1,1.3-4.3l4.3-13h4.7l-8.7,24.7h-5.5Z"/>
      <path class="st0" d="M93.5,35c-1.8,0-3.3-.4-4.6-1.2-1.3-.8-2.3-1.9-3-3.3s-1.1-3-1.1-4.8.4-3.4,1.1-4.8,1.7-2.5,3-3.3c1.3-.8,2.7-1.2,4.4-1.2s2.4.2,3.4.6c1,.4,1.9,1,2.7,1.8.8.8,1.3,1.8,1.7,2.9.4,1.1.6,2.4.6,3.8v1.2h-15.1v-2.9h13l-1.9.8c0-1-.2-1.9-.5-2.6-.3-.7-.8-1.3-1.5-1.7-.6-.4-1.4-.6-2.3-.6s-1.7.2-2.3.6c-.7.4-1.2,1-1.5,1.7-.4.7-.5,1.6-.5,2.5v1.9c0,1,.2,1.9.5,2.7.4.8.9,1.4,1.6,1.8s1.5.6,2.5.6,1.3-.1,1.8-.3c.5-.2,1-.5,1.3-.9.4-.4.6-.8.8-1.3l3.9.2c-.2,1.1-.7,2.1-1.5,2.9-.7.8-1.7,1.5-2.8,2-1.1.5-2.4.7-3.7.7Z"/>
      <path class="st0" d="M109,9.8v24.7h-4.2V9.8h4.2Z"/>
      <path class="st0" d="M120.7,35c-1.7,0-3.3-.4-4.6-1.2-1.3-.8-2.3-1.9-3-3.2-.7-1.4-1.1-3-1.1-4.8,0-1.8.4-3.5,1.1-4.9.7-1.4,1.7-2.5,3-3.3,1.3-.8,2.8-1.2,4.6-1.2s3.3.4,4.6,1.2,2.3,1.9,3,3.3c.7,1.4,1.1,3,1.1,4.9s-.4,3.4-1.1,4.8-1.7,2.5-3,3.2c-1.3.8-2.8,1.2-4.6,1.2ZM120.7,31.5c.9,0,1.7-.2,2.4-.7.7-.5,1.2-1.1,1.5-2s.5-1.9.5-3-.2-2.2-.5-3c-.4-.9-.9-1.5-1.5-2-.7-.5-1.5-.7-2.4-.7s-1.7.2-2.4.7c-.7.5-1.2,1.1-1.5,2-.4.9-.5,1.9-.5,3s.2,2.2.5,3c.4.9.9,1.5,1.5,2s1.5.7,2.4.7Z"/>
      <path class="st0" d="M136.7,24.4v10.1h-4.2v-17.8h4.1v4.5s-.7,0-.7,0c.6-1.6,1.3-2.8,2.4-3.6s2.3-1.2,3.8-1.2c1.2,0,2.3.3,3.3.8s1.7,1.3,2.2,2.3c.5,1,.8,2.3.8,3.8v11.1h-4.2v-10.5c0-1.3-.3-2.3-.9-2.9s-1.5-1-2.6-1-1.4.2-2,.5c-.6.3-1,.8-1.4,1.4-.3.6-.5,1.4-.5,2.4Z"/>
      <path class="st1" d="M163.3,22.9v3.1h-11v-3.1h11Z"/>
      <path class="st1" d="M167.7,34.6V9.8h16.4v3.2h-12.7v7.3h11.8v3.2h-11.8v7.7h12.7v3.2h-16.4Z"/>
      <path class="st1" d="M187.8,34.6V9.8h9.3c1.8,0,3.3.3,4.6,1,1.3.6,2.3,1.5,3,2.7s1,2.5,1,4.1-.4,2.9-1.1,4.1-1.7,2-3.1,2.7c-1.3.6-2.9.9-4.7.9h-7v-3.2h7c1.1,0,2-.2,2.8-.5.8-.4,1.3-.9,1.7-1.6.4-.7.6-1.5.6-2.4,0-.9-.2-1.7-.6-2.4-.4-.7-1-1.2-1.8-1.6-.8-.4-1.7-.6-2.8-.6h-5.4v21.5h-3.7ZM202,34.6l-5.9-11.1h4.1l6,11.1h-4.2Z"/>
      <path class="st1" d="M209.6,34.6V9.8h9.1c1.8,0,3.3.3,4.6,1s2.3,1.5,3,2.7c.7,1.2,1,2.5,1,4.1s-.3,2.9-1,4.1c-.7,1.2-1.7,2.1-3,2.7-1.3.6-2.9,1-4.7,1h-6.9v-3.2h6.7c1.1,0,2-.2,2.8-.6s1.3-.9,1.7-1.6c.4-.7.6-1.5.6-2.4,0-.9-.2-1.7-.6-2.4-.4-.7-1-1.2-1.8-1.6-.8-.4-1.7-.6-2.8-.6h-5.1v21.5h-3.7Z"/>
    </g>
  </g>
</svg>